<svg id="Layer_1" data-name="Layer 1" xmlns="http://www.w3.org/2000/svg" width="64" height="64" viewBox="0 0 64 64"><defs><style>.cls-1{fill:#00B894;}</style></defs><title>newspaper</title><path id="newspaper" class="cls-1" d="M54,56H8a4,4,0,0,1-4-4V13a1,1,0,0,1,1-1H53a1,1,0,0,1,1,1V47a1,1,0,0,1-2,0V14H6V52a2,2,0,0,0,2,2H54a2,2,0,0,0,2-2V10H9A1,1,0,0,1,9,8H57a1,1,0,0,1,1,1V52A4,4,0,0,1,54,56ZM47,26H11a1,1,0,0,1-1-1V21a1,1,0,0,1,1-1H47a1,1,0,0,1,1,1v4A1,1,0,0,1,47,26ZM12,24H46V22H12v2ZM47,40H31a1,1,0,0,1-1-1V31a1,1,0,0,1,1-1H47a1,1,0,0,1,1,1v8A1,1,0,0,1,47,40ZM32,38H46V32H32v6Zm-5-6H11a1,1,0,0,1,0-2H27A1,1,0,0,1,27,32Zm0,8H11a1,1,0,0,1,0-2H27A1,1,0,0,1,27,40Zm0-4H11a1,1,0,0,1,0-2H27A1,1,0,0,1,27,36Zm0,8H11a1,1,0,0,1,0-2H27A1,1,0,0,1,27,44Zm0,4H11a1,1,0,0,1,0-2H27A1,1,0,0,1,27,48Zm20,0H31a1,1,0,0,1,0-2H47A1,1,0,0,1,47,48Zm0-4H31a1,1,0,0,1,0-2H47A1,1,0,0,1,47,44Z"/></svg>