<svg id="Layer_1" data-name="Layer 1" xmlns="http://www.w3.org/2000/svg" width="64" height="64" viewBox="0 0 64 64"><defs><style>.cls-1{fill:#00B894;}</style></defs><title>folder_edit</title><path id="folder_edit" class="cls-1" d="M53,16H50V14a4,4,0,0,0-4-4H26a3.22,3.22,0,0,1-3.2-1.6A5.13,5.13,0,0,0,18,6H8a4,4,0,0,0-4,4V46a4,4,0,0,0,4,4H33a1,1,0,0,0,0-2H10V18H52V29a1,1,0,1,0,2,0V17A1,1,0,0,0,53,16ZM9,16a1,1,0,0,0-1,1V48a2,2,0,0,1-2-2V10A2,2,0,0,1,8,8H18a3.22,3.22,0,0,1,3.2,1.6A5.13,5.13,0,0,0,26,12H46a2,2,0,0,1,2,2v2H9ZM59.28,34.81L57.2,32.73a2.54,2.54,0,0,0-3.47,0l-1.79,1.68v0h0L36.7,49.7h0l-0.37.37a0.94,0.94,0,0,0-.19.26l-4,8.23a1,1,0,0,0,.19,1.15A1,1,0,0,0,33,60a1,1,0,0,0,.44-0.1l8.19-4.06a1,1,0,0,0,.26-0.19L57.47,40l1.81-1.7A2.49,2.49,0,0,0,59.28,34.81ZM37.56,52L40,54.42,35.19,56.8Zm4,1.17L38.82,50.4,52.63,36.53l2.74,2.75ZM57.89,36.87l-1.08,1-2.74-2.75,1.06-1a0.46,0.46,0,0,1,.66,0l2.07,2.08A0.47,0.47,0,0,1,57.89,36.87Z"/></svg>