<svg id="Layer_1" data-name="Layer 1" xmlns="http://www.w3.org/2000/svg" width="64" height="64" viewBox="0 0 64 64"><defs><style>.cls-1{fill:#00B894;}</style></defs><title>lightening</title><path class="cls-1" d="M26.62,61.93A1,1,0,0,0,27,62a1,1,0,0,0,.82-0.42l24-34a1,1,0,0,0,.07-1A1,1,0,0,0,51,26H36.18L40,3.16a1,1,0,0,0-.59-1.08,1,1,0,0,0-1.19.31l-26,34A1,1,0,0,0,13,38H29.82L26,60.84A1,1,0,0,0,26.62,61.93ZM32,37.16a1,1,0,0,0-.22-0.81A1,1,0,0,0,31,36H15L37.35,6.8,34,26.84a1,1,0,0,0,.22.81A1,1,0,0,0,35,28H49.07L28.71,56.85Z"/></svg>